<svg xmlns:xlink="http://www.w3.org/1999/xlink" width="144pt" height="144pt" viewBox="0 0 144 144" xmlns="http://www.w3.org/2000/svg" version="1.1">

 <defs>
  <style type="text/css">*{stroke-linejoin: round; stroke-linecap: butt}</style>
 </defs>
 <g id="figure_1">
  <g id="patch_1">
   <path d="M 0 144 
L 144 144 
L 144 0 
L 0 0 
z
" style="fill: #ffffff"/>
  </g>
  <g id="axes_1">
   <g id="patch_2">
    <path d="M 72 144 
C 91.094623 144 109.409751 136.413626 122.911688 122.911688 
C 136.413626 109.409751 144 91.094623 144 72 
C 144 52.905377 136.413626 34.590249 122.911688 21.088312 
C 109.409751 7.586374 91.094623 0 72 0 
C 52.905377 0 34.590249 7.586374 21.088312 21.088312 
C 7.586374 34.590249 0 52.905377 0 72 
C 0 91.094623 7.586374 109.409751 21.088312 122.911688 
C 34.590249 136.413626 52.905377 144 72 144 
z
" clip-path="url(#p33c069a9c3)" style="fill: #d0e1f9; stroke: #d0e1f9; stroke-linejoin: miter"/>
   </g>
   <g id="patch_3">
    <path d="M 72 72 
C 77.728387 72 83.222925 69.724088 87.273506 65.673506 
C 91.324088 61.622925 93.6 56.128387 93.6 50.4 
C 93.6 44.671613 91.324088 39.177075 87.273506 35.126494 
C 83.222925 31.075912 77.728387 28.8 72 28.8 
C 66.271613 28.8 60.777075 31.075912 56.726494 35.126494 
C 52.675912 39.177075 50.4 44.671613 50.4 50.4 
C 50.4 56.128387 52.675912 61.622925 56.726494 65.673506 
C 60.777075 69.724088 66.271613 72 72 72 
z
" clip-path="url(#p33c069a9c3)" style="fill: #ffffff; stroke: #ffffff; stroke-linejoin: miter"/>
   </g>
   <g id="patch_4">
    <path d="M 72 115.2 
C 81.547312 115.2 90.704875 112.924088 97.455844 108.873506 
C 104.206813 104.822925 108 99.328387 108 93.6 
C 108 87.871613 104.206813 82.377075 97.455844 78.326494 
C 90.704875 74.275912 81.547312 72 72 72 
C 62.452688 72 53.295125 74.275912 46.544156 78.326494 
C 39.793187 82.377075 36 87.871613 36 93.6 
C 36 99.328387 39.793187 104.822925 46.544156 108.873506 
C 53.295125 112.924088 62.452688 115.2 72 115.2 
z
" clip-path="url(#p33c069a9c3)" style="fill: #ffffff; stroke: #ffffff; stroke-linejoin: miter"/>
   </g>
  </g>
 </g>
 <defs>
  <clipPath id="p33c069a9c3">
   <rect x="0" y="0" width="144" height="144"/>
  </clipPath>
 </defs>
</svg>
